<svg width="40" height="40" viewBox="0 0 814 814" fill="none" xmlns="http://www.w3.org/2000/svg"><path fill-rule="evenodd" clip-rule="evenodd" d="M569.795 651.201C703.313 651.201 811.804 544.045 813.96 411.041L813.993 407.003C813.993 631.781 631.774 813.999 406.996 813.999C182.219 813.999 0 631.781 0 407.003L325.597 407.003C325.597 541.869 434.928 651.201 569.795 651.201Z" fill="url(#paint0_linear_546_802)"></path><path fill-rule="evenodd" clip-rule="evenodd" d="M244.205 651.194C110.687 651.194 2.19631 544.039 0.0398464 411.035L0.00711823 406.996C0.00711823 631.774 182.226 813.993 407.004 813.993C631.781 813.993 814 631.774 814 406.996L488.403 406.996C488.403 541.863 379.072 651.194 244.205 651.194Z" fill="url(#paint1_linear_546_802)"></path><path fill-rule="evenodd" clip-rule="evenodd" d="M244.205 162.798C110.687 162.798 2.19631 269.954 0.0398464 402.958L0.00711823 406.996C0.00711823 182.218 182.226 -0.000102997 407.004 -0.000102997C631.781 -0.000102997 814 182.218 814 406.996L488.403 406.996C488.403 272.13 379.072 162.798 244.205 162.798Z" fill="url(#paint2_linear_546_802)"></path><path fill-rule="evenodd" clip-rule="evenodd" d="M569.795 162.805C703.313 162.805 811.804 269.96 813.96 402.964L813.993 407.003C813.993 182.225 631.774 0.00624466 406.996 0.00624466C182.219 0.00624466 0 182.225 0 407.003L325.597 407.003C325.597 272.136 434.928 162.805 569.795 162.805Z" fill="url(#paint3_linear_546_802)"></path><path d="M321.512 402.922H4.05518V411.062H321.512V402.922Z" fill="#EF9146"></path><path d="M809.936 402.922H492.479V411.062H809.936V402.922Z" fill="#E57622"></path><defs><linearGradient id="paint0_linear_546_802" x1="178.061" y1="407.003" x2="190.78" y2="813.999" gradientUnits="userSpaceOnUse"><stop stop-color="#EF9146"></stop><stop offset="1" stop-color="#E0592E"></stop></linearGradient><linearGradient id="paint1_linear_546_802" x1="407.004" y1="406.996" x2="407.004" y2="813.993" gradientUnits="userSpaceOnUse"><stop stop-color="#E57722"></stop><stop offset="1" stop-color="#F2B24C"></stop></linearGradient><linearGradient id="paint2_linear_546_802" x1="597.447" y1="406.996" x2="597.447" y2="-17.2782" gradientUnits="userSpaceOnUse"><stop stop-color="#E57722"></stop><stop offset="1" stop-color="#DD4A33"></stop></linearGradient><linearGradient id="paint3_linear_546_802" x1="165.342" y1="407.003" x2="165.342" y2="0.0062606" gradientUnits="userSpaceOnUse"><stop stop-color="#EF9046"></stop><stop offset="1" stop-color="#F3C44F"></stop></linearGradient></defs></svg>