<svg width="158" height="36" viewBox="0 0 158 36" fill="none" xmlns="http://www.w3.org/2000/svg">
<rect y="17.8461" width="24.8466" height="24.8466" transform="rotate(-45 0 17.8461)" fill="#1455FE"/>
<path d="M6.74609 17.7972L28.4585 17.7972L17.7851 28.7302L6.74609 17.7972Z" fill="#F9FAFB"/>
<path d="M44.3059 24.6144V12.8144H39.6659V10.6144H51.5459V12.8144H46.9059V24.6144H44.3059ZM56.9634 24.7544C55.8701 24.7544 54.8968 24.521 54.0434 24.0544C53.1901 23.5744 52.5168 22.921 52.0234 22.0944C51.5301 21.2677 51.2834 20.3277 51.2834 19.2744C51.2834 18.2077 51.5301 17.2677 52.0234 16.4544C52.5168 15.6277 53.1901 14.981 54.0434 14.5144C54.8968 14.0477 55.8701 13.8144 56.9634 13.8144C58.0701 13.8144 59.0501 14.0477 59.9034 14.5144C60.7701 14.981 61.4434 15.621 61.9234 16.4344C62.4168 17.2477 62.6634 18.1944 62.6634 19.2744C62.6634 20.3277 62.4168 21.2677 61.9234 22.0944C61.4434 22.921 60.7701 23.5744 59.9034 24.0544C59.0501 24.521 58.0701 24.7544 56.9634 24.7544ZM56.9634 22.6144C57.5768 22.6144 58.1234 22.481 58.6034 22.2144C59.0834 21.9477 59.4568 21.561 59.7234 21.0544C60.0034 20.5477 60.1434 19.9544 60.1434 19.2744C60.1434 18.581 60.0034 17.9877 59.7234 17.4944C59.4568 16.9877 59.0834 16.601 58.6034 16.3344C58.1234 16.0677 57.5834 15.9344 56.9834 15.9344C56.3701 15.9344 55.8234 16.0677 55.3434 16.3344C54.8768 16.601 54.5034 16.9877 54.2234 17.4944C53.9434 17.9877 53.8034 18.581 53.8034 19.2744C53.8034 19.9544 53.9434 20.5477 54.2234 21.0544C54.5034 21.561 54.8768 21.9477 55.3434 22.2144C55.8234 22.481 56.3634 22.6144 56.9634 22.6144ZM67.0941 22.2344L67.1541 19.0944L72.7341 13.9344H75.7341L70.9941 18.6944L69.6741 19.7944L67.0941 22.2344ZM65.0541 24.6144V9.77438H67.5541V24.6144H65.0541ZM73.1141 24.6144L69.2141 19.7944L70.7941 17.7944L76.1541 24.6144H73.1141ZM82.3592 24.7544C81.1726 24.7544 80.1326 24.521 79.2392 24.0544C78.3592 23.5744 77.6726 22.921 77.1792 22.0944C76.6992 21.2677 76.4592 20.3277 76.4592 19.2744C76.4592 18.2077 76.6926 17.2677 77.1592 16.4544C77.6392 15.6277 78.2926 14.981 79.1192 14.5144C79.9592 14.0477 80.9126 13.8144 81.9792 13.8144C83.0192 13.8144 83.9459 14.041 84.7592 14.4944C85.5726 14.9477 86.2126 15.5877 86.6792 16.4144C87.1459 17.241 87.3792 18.2144 87.3792 19.3344C87.3792 19.441 87.3726 19.561 87.3592 19.6944C87.3592 19.8277 87.3526 19.9544 87.3392 20.0744H78.4392V18.4144H86.0192L85.0392 18.9344C85.0526 18.321 84.9259 17.781 84.6592 17.3144C84.3926 16.8477 84.0259 16.481 83.5592 16.2144C83.1059 15.9477 82.5792 15.8144 81.9792 15.8144C81.3659 15.8144 80.8259 15.9477 80.3592 16.2144C79.9059 16.481 79.5459 16.8544 79.2792 17.3344C79.0259 17.801 78.8992 18.3544 78.8992 18.9944V19.3944C78.8992 20.0344 79.0459 20.601 79.3392 21.0944C79.6326 21.5877 80.0459 21.9677 80.5792 22.2344C81.1126 22.501 81.7259 22.6344 82.4192 22.6344C83.0192 22.6344 83.5592 22.541 84.0392 22.3544C84.5192 22.1677 84.9459 21.8744 85.3192 21.4744L86.6592 23.0144C86.1792 23.5744 85.5726 24.0077 84.8392 24.3144C84.1192 24.6077 83.2926 24.7544 82.3592 24.7544ZM95.8406 13.8144C96.694 13.8144 97.454 13.981 98.1206 14.3144C98.8006 14.6477 99.334 15.161 99.7206 15.8544C100.107 16.5344 100.301 17.4144 100.301 18.4944V24.6144H97.8006V18.8144C97.8006 17.8677 97.574 17.161 97.1206 16.6944C96.6806 16.2277 96.0606 15.9944 95.2606 15.9944C94.674 15.9944 94.154 16.1144 93.7006 16.3544C93.2473 16.5944 92.894 16.9544 92.6406 17.4344C92.4006 17.901 92.2806 18.4944 92.2806 19.2144V24.6144H89.7806V13.9344H92.1606V16.8144L91.7406 15.9344C92.114 15.2544 92.654 14.7344 93.3606 14.3744C94.0806 14.001 94.9073 13.8144 95.8406 13.8144Z" fill="#1D2939"/>
<path d="M106.552 24.6144V12.8144H101.912V10.6144H113.792V12.8144H109.152V24.6144H106.552ZM121.517 24.6144V22.4544L121.377 21.9944V18.2144C121.377 17.481 121.157 16.9144 120.717 16.5144C120.277 16.101 119.61 15.8944 118.717 15.8944C118.117 15.8944 117.524 15.9877 116.937 16.1744C116.364 16.361 115.877 16.621 115.477 16.9544L114.497 15.1344C115.07 14.6944 115.75 14.3677 116.537 14.1544C117.337 13.9277 118.164 13.8144 119.017 13.8144C120.564 13.8144 121.757 14.1877 122.597 14.9344C123.45 15.6677 123.877 16.8077 123.877 18.3544V24.6144H121.517ZM118.157 24.7544C117.357 24.7544 116.657 24.621 116.057 24.3544C115.457 24.0744 114.99 23.6944 114.657 23.2144C114.337 22.721 114.177 22.1677 114.177 21.5544C114.177 20.9544 114.317 20.4144 114.597 19.9344C114.89 19.4544 115.364 19.0744 116.017 18.7944C116.67 18.5144 117.537 18.3744 118.617 18.3744H121.717V20.0344H118.797C117.944 20.0344 117.37 20.1744 117.077 20.4544C116.784 20.721 116.637 21.0544 116.637 21.4544C116.637 21.9077 116.817 22.2677 117.177 22.5344C117.537 22.801 118.037 22.9344 118.677 22.9344C119.29 22.9344 119.837 22.7944 120.317 22.5144C120.81 22.2344 121.164 21.821 121.377 21.2744L121.797 22.7744C121.557 23.401 121.124 23.8877 120.497 24.2344C119.884 24.581 119.104 24.7544 118.157 24.7544ZM133.005 24.7544C132.099 24.7544 131.292 24.5544 130.585 24.1544C129.879 23.7544 129.319 23.1544 128.905 22.3544C128.505 21.541 128.305 20.5144 128.305 19.2744C128.305 18.021 128.512 16.9944 128.925 16.1944C129.352 15.3944 129.919 14.801 130.625 14.4144C131.345 14.0144 132.139 13.8144 133.005 13.8144C134.059 13.8144 134.985 14.041 135.785 14.4944C136.599 14.9477 137.239 15.581 137.705 16.3944C138.185 17.2077 138.425 18.1677 138.425 19.2744C138.425 20.381 138.185 21.341 137.705 22.1544C137.239 22.9677 136.599 23.6077 135.785 24.0744C134.985 24.5277 134.059 24.7544 133.005 24.7544ZM127.085 24.6144V9.77438H129.585V16.4144L129.385 19.2544L129.465 22.0944V24.6144H127.085ZM132.725 22.6144C133.325 22.6144 133.859 22.481 134.325 22.2144C134.805 21.9477 135.185 21.561 135.465 21.0544C135.745 20.5477 135.885 19.9544 135.885 19.2744C135.885 18.581 135.745 17.9877 135.465 17.4944C135.185 16.9877 134.805 16.601 134.325 16.3344C133.859 16.0677 133.325 15.9344 132.725 15.9344C132.125 15.9344 131.585 16.0677 131.105 16.3344C130.625 16.601 130.245 16.9877 129.965 17.4944C129.685 17.9877 129.545 18.581 129.545 19.2744C129.545 19.9544 129.685 20.5477 129.965 21.0544C130.245 21.561 130.625 21.9477 131.105 22.2144C131.585 22.481 132.125 22.6144 132.725 22.6144ZM140.796 24.6144V9.77438H143.296V24.6144H140.796ZM151.598 24.7544C150.411 24.7544 149.371 24.521 148.478 24.0544C147.598 23.5744 146.911 22.921 146.418 22.0944C145.938 21.2677 145.698 20.3277 145.698 19.2744C145.698 18.2077 145.931 17.2677 146.398 16.4544C146.878 15.6277 147.531 14.981 148.358 14.5144C149.198 14.0477 150.151 13.8144 151.218 13.8144C152.258 13.8144 153.184 14.041 153.998 14.4944C154.811 14.9477 155.451 15.5877 155.918 16.4144C156.384 17.241 156.618 18.2144 156.618 19.3344C156.618 19.441 156.611 19.561 156.598 19.6944C156.598 19.8277 156.591 19.9544 156.578 20.0744H147.678V18.4144H155.258L154.278 18.9344C154.291 18.321 154.164 17.781 153.898 17.3144C153.631 16.8477 153.264 16.481 152.798 16.2144C152.344 15.9477 151.818 15.8144 151.218 15.8144C150.604 15.8144 150.064 15.9477 149.598 16.2144C149.144 16.481 148.784 16.8544 148.518 17.3344C148.264 17.801 148.138 18.3544 148.138 18.9944V19.3944C148.138 20.0344 148.284 20.601 148.578 21.0944C148.871 21.5877 149.284 21.9677 149.818 22.2344C150.351 22.501 150.964 22.6344 151.658 22.6344C152.258 22.6344 152.798 22.541 153.278 22.3544C153.758 22.1677 154.184 21.8744 154.558 21.4744L155.898 23.0144C155.418 23.5744 154.811 24.0077 154.078 24.3144C153.358 24.6077 152.531 24.7544 151.598 24.7544Z" fill="#1455FE"/>
</svg>
