<svg width="1286" height="316" viewBox="0 0 1286 316" fill="none" xmlns="http://www.w3.org/2000/svg">
<rect y="158" width="223.446" height="223.446" transform="rotate(-45 0 158)" fill="#1455FE"/>
<path d="M60.6699 157.561L255.93 157.561L159.944 255.881L60.6699 157.561Z" fill="#F9FAFB"/>
<path d="M398.537 223V116.657H356.721V96.83H463.785V116.657H421.969V223H398.537ZM512.608 224.262C502.755 224.262 493.983 222.159 486.293 217.953C478.603 213.627 472.534 207.739 468.089 200.289C463.643 192.839 461.42 184.368 461.42 174.875C461.42 165.262 463.643 156.791 468.089 149.461C472.534 142.011 478.603 136.183 486.293 131.977C493.983 127.772 502.755 125.669 512.608 125.669C522.582 125.669 531.414 127.772 539.104 131.977C546.915 136.183 552.983 141.951 557.309 149.281C561.755 156.611 563.978 165.142 563.978 174.875C563.978 184.368 561.755 192.839 557.309 200.289C552.983 207.739 546.915 213.627 539.104 217.953C531.414 222.159 522.582 224.262 512.608 224.262ZM512.608 204.976C518.136 204.976 523.063 203.774 527.388 201.371C531.714 198.968 535.079 195.483 537.482 190.917C540.005 186.351 541.267 181.003 541.267 174.875C541.267 168.627 540.005 163.28 537.482 158.834C535.079 154.267 531.714 150.783 527.388 148.379C523.063 145.976 518.196 144.775 512.789 144.775C507.261 144.775 502.335 145.976 498.009 148.379C493.803 150.783 490.439 154.267 487.915 158.834C485.392 163.28 484.13 168.627 484.13 174.875C484.13 181.003 485.392 186.351 487.915 190.917C490.439 195.483 493.803 198.968 498.009 201.371C502.335 203.774 507.201 204.976 512.608 204.976ZM603.907 201.551L604.448 173.253L654.736 126.75H681.772L639.054 169.648L627.158 179.561L603.907 201.551ZM585.522 223V89.2598H608.053V223H585.522ZM658.16 223L623.013 179.561L637.252 161.537L685.557 223H658.16ZM741.479 224.262C730.784 224.262 721.412 222.159 713.361 217.953C705.43 213.627 699.242 207.739 694.796 200.289C690.47 192.839 688.307 184.368 688.307 174.875C688.307 165.262 690.41 156.791 694.616 149.461C698.942 142.011 704.829 136.183 712.279 131.977C719.85 127.772 728.441 125.669 738.054 125.669C747.427 125.669 755.778 127.712 763.108 131.797C770.438 135.883 776.206 141.65 780.411 149.1C784.617 156.55 786.72 165.322 786.72 175.416C786.72 176.377 786.66 177.459 786.54 178.66C786.54 179.862 786.479 181.003 786.359 182.085H706.151V167.125H774.463L765.631 171.811C765.752 166.284 764.61 161.417 762.207 157.211C759.804 153.006 756.499 149.701 752.293 147.298C748.208 144.895 743.462 143.693 738.054 143.693C732.527 143.693 727.66 144.895 723.455 147.298C719.369 149.701 716.125 153.066 713.721 157.392C711.438 161.597 710.297 166.584 710.297 172.352V175.957C710.297 181.724 711.619 186.831 714.262 191.277C716.906 195.723 720.631 199.148 725.437 201.551C730.244 203.954 735.771 205.156 742.02 205.156C747.427 205.156 752.293 204.315 756.619 202.633C760.945 200.95 764.79 198.307 768.155 194.702L780.231 208.581C775.905 213.627 770.438 217.533 763.829 220.296C757.34 222.94 749.89 224.262 741.479 224.262ZM862.975 125.669C870.666 125.669 877.515 127.171 883.523 130.175C889.651 133.179 894.458 137.805 897.942 144.054C901.427 150.182 903.169 158.113 903.169 167.846V223H880.639V170.73C880.639 162.198 878.596 155.83 874.511 151.624C870.545 147.418 864.958 145.315 857.748 145.315C852.461 145.315 847.775 146.397 843.689 148.56C839.604 150.723 836.419 153.967 834.136 158.293C831.973 162.498 830.892 167.846 830.892 174.334V223H808.362V126.75H829.81V152.705L826.025 144.775C829.39 138.646 834.256 133.96 840.625 130.716C847.114 127.351 854.564 125.669 862.975 125.669Z" fill="#1D2939"/>
<path d="M993.033 224.802C983.18 224.802 974.108 223.18 965.816 219.936C957.525 216.692 950.316 212.185 944.187 206.418C938.059 200.53 933.313 193.681 929.948 185.87C926.584 177.939 924.901 169.288 924.901 159.915C924.901 150.542 926.584 141.951 929.948 134.14C933.313 126.21 938.059 119.36 944.187 113.593C950.316 107.705 957.525 103.139 965.816 99.8942C974.108 96.6498 983.12 95.0276 992.853 95.0276C1002.71 95.0276 1011.72 96.6498 1019.89 99.8942C1028.18 103.139 1035.39 107.705 1041.52 113.593C1047.65 119.36 1052.39 126.21 1055.76 134.14C1059.12 141.951 1060.8 150.542 1060.8 159.915C1060.8 169.288 1059.12 177.939 1055.76 185.87C1052.39 193.801 1047.65 200.65 1041.52 206.418C1035.39 212.185 1028.18 216.692 1019.89 219.936C1011.72 223.18 1002.77 224.802 993.033 224.802ZM992.853 204.255C999.221 204.255 1005.11 203.173 1010.52 201.01C1015.92 198.847 1020.61 195.783 1024.58 191.818C1028.54 187.732 1031.61 183.046 1033.77 177.759C1036.05 172.352 1037.19 166.404 1037.19 159.915C1037.19 153.426 1036.05 147.538 1033.77 142.251C1031.61 136.844 1028.54 132.158 1024.58 128.192C1020.61 124.107 1015.92 120.983 1010.52 118.82C1005.11 116.657 999.221 115.575 992.853 115.575C986.484 115.575 980.596 116.657 975.189 118.82C969.902 120.983 965.216 124.107 961.13 128.192C957.165 132.158 954.041 136.844 951.757 142.251C949.595 147.538 948.513 153.426 948.513 159.915C948.513 166.284 949.595 172.172 951.757 177.579C954.041 182.986 957.165 187.732 961.13 191.818C965.095 195.783 969.782 198.847 975.189 201.01C980.596 203.173 986.484 204.255 992.853 204.255ZM1136.83 224.262C1129.02 224.262 1121.87 222.459 1115.38 218.854C1109.01 215.25 1103.91 209.842 1100.06 202.633C1096.34 195.303 1094.47 186.05 1094.47 174.875C1094.47 163.58 1096.28 154.327 1099.88 147.118C1103.61 139.908 1108.65 134.561 1115.02 131.076C1121.39 127.471 1128.66 125.669 1136.83 125.669C1146.32 125.669 1154.67 127.712 1161.88 131.797C1169.21 135.883 1174.98 141.59 1179.19 148.92C1183.51 156.25 1185.68 164.902 1185.68 174.875C1185.68 184.849 1183.51 193.56 1179.19 201.01C1174.98 208.34 1169.21 214.048 1161.88 218.133C1154.67 222.219 1146.32 224.262 1136.83 224.262ZM1083.48 257.967V126.75H1104.93V149.461L1104.21 175.055L1106.01 200.65V257.967H1083.48ZM1134.31 204.976C1139.71 204.976 1144.52 203.774 1148.73 201.371C1153.05 198.968 1156.48 195.483 1159 190.917C1161.52 186.351 1162.79 181.003 1162.79 174.875C1162.79 168.627 1161.52 163.28 1159 158.834C1156.48 154.267 1153.05 150.783 1148.73 148.379C1144.52 145.976 1139.71 144.775 1134.31 144.775C1128.9 144.775 1124.03 145.976 1119.71 148.379C1115.38 150.783 1111.96 154.267 1109.43 158.834C1106.91 163.28 1105.65 168.627 1105.65 174.875C1105.65 181.003 1106.91 186.351 1109.43 190.917C1111.96 195.483 1115.38 198.968 1119.71 201.371C1124.03 203.774 1128.9 204.976 1134.31 204.976ZM1236.78 224.262C1228.73 224.262 1220.98 223.24 1213.53 221.198C1206.2 219.035 1200.37 216.451 1196.05 213.447L1204.7 196.324C1209.03 199.088 1214.19 201.371 1220.2 203.173C1226.21 204.976 1232.22 205.877 1238.23 205.877C1245.31 205.877 1250.42 204.916 1253.55 202.993C1256.79 201.07 1258.41 198.487 1258.41 195.243C1258.41 192.599 1257.33 190.616 1255.17 189.295C1253.01 187.853 1250.18 186.771 1246.7 186.05C1243.21 185.329 1239.31 184.668 1234.98 184.068C1230.78 183.467 1226.51 182.686 1222.18 181.724C1217.98 180.643 1214.13 179.141 1210.65 177.218C1207.16 175.176 1204.34 172.472 1202.18 169.107C1200.01 165.743 1198.93 161.297 1198.93 155.769C1198.93 149.641 1200.67 144.354 1204.16 139.908C1207.64 135.342 1212.51 131.857 1218.76 129.454C1225.13 126.931 1232.64 125.669 1241.29 125.669C1247.78 125.669 1254.33 126.39 1260.94 127.832C1267.54 129.274 1273.01 131.316 1277.34 133.96L1268.69 151.083C1264.12 148.319 1259.49 146.457 1254.81 145.496C1250.24 144.414 1245.68 143.873 1241.11 143.873C1234.26 143.873 1229.15 144.895 1225.79 146.938C1222.54 148.98 1220.92 151.564 1220.92 154.688C1220.92 157.572 1222 159.735 1224.17 161.177C1226.33 162.619 1229.15 163.76 1232.64 164.601C1236.12 165.442 1239.97 166.163 1244.17 166.764C1248.5 167.245 1252.76 168.026 1256.97 169.107C1261.18 170.189 1265.02 171.691 1268.51 173.613C1272.11 175.416 1274.99 177.999 1277.16 181.364C1279.32 184.728 1280.4 189.114 1280.4 194.522C1280.4 200.53 1278.6 205.757 1274.99 210.203C1271.51 214.649 1266.52 218.133 1260.03 220.657C1253.55 223.06 1245.8 224.262 1236.78 224.262Z" fill="#1455FE"/>
</svg>
